HIERARCHY
ROOT Hips
{
	OFFSET 0.000000 0.000000 0.000000
	CHANNELS 6 Xposition Yposition Zposition Zrotation Yrotation Xrotation 
	JOINT LHipJoint
	{
		OFFSET 0.000000 0.000000 0.000000
		CHANNELS 3 Zrotation Yrotation Xrotation
		JOINT LeftUpLeg
		{
			OFFSET 1.363060 -1.794630 0.839290
			CHANNELS 3 Zrotation Yrotation Xrotation
			JOINT LeftLeg
			{
				OFFSET 2.448110 -6.726130 0.000000
				CHANNELS 3 Zrotation Yrotation Xrotation
				JOINT LeftFoot
				{
					OFFSET 2.562200 -7.039590 0.000000
					CHANNELS 3 Zrotation Yrotation Xrotation
					JOINT LeftToeBase
					{
						OFFSET 0.157640 -0.433110 2.322550
						CHANNELS 3 Zrotation Yrotation Xrotation
						End Site
						{
							OFFSET 0.000000 0.000000 0.000000
						}
					}
				}
			}
		}
	}
	JOINT RHipJoint
	{
		OFFSET 0.000000 0.000000 0.000000
		CHANNELS 3 Zrotation Yrotation Xrotation
		JOINT RightUpLeg
		{
			OFFSET -1.305520 -1.794630 0.839290
			CHANNELS 3 Zrotation Yrotation Xrotation
			JOINT RightLeg
			{
				OFFSET -2.542530 -6.985550 0.000000
				CHANNELS 3 Zrotation Yrotation Xrotation
				JOINT RightFoot
				{
					OFFSET -2.568260 -7.056230 0.000000
					CHANNELS 3 Zrotation Yrotation Xrotation
					JOINT RightToeBase
					{
						OFFSET -0.164730 -0.452590 2.363150
						CHANNELS 3 Zrotation Yrotation Xrotation
						End Site
						{
							OFFSET 0.000000 0.000000 0.000000
						}
					}
				}
			}
		}
	}
	JOINT LowerBack
	{
		OFFSET 0.000000 0.000000 0.000000
		CHANNELS 3 Zrotation Yrotation Xrotation
		JOINT Spine
		{
			OFFSET 0.028270 2.035590 -0.193380
			CHANNELS 3 Zrotation Yrotation Xrotation
			JOINT Spine1
			{
				OFFSET 0.056720 2.048850 -0.042750
				CHANNELS 3 Zrotation Yrotation Xrotation
				JOINT Neck
				{
					OFFSET 0.000000 0.000000 0.000000
					CHANNELS 3 Zrotation Yrotation Xrotation
					JOINT Neck1
					{
						OFFSET -0.054170 1.746240 0.172020
						CHANNELS 3 Zrotation Yrotation Xrotation
						JOINT Head
						{
							OFFSET 0.104070 1.761360 -0.123970
							CHANNELS 3 Zrotation Yrotation Xrotation
							End Site
							{
								OFFSET 0.000000 0.000000 0.000000
							}
						}
					}
				}
				JOINT LeftShoulder
				{
					OFFSET 0.000000 0.000000 0.000000
					CHANNELS 3 Zrotation Yrotation Xrotation
					JOINT LeftArm
					{
						OFFSET 3.362410 1.200890 -0.311210
						CHANNELS 3 Zrotation Yrotation Xrotation
						JOINT LeftForeArm
						{
							OFFSET 4.983000 -0.000000 -0.000000
							CHANNELS 3 Zrotation Yrotation Xrotation
							JOINT LeftHand
							{
								OFFSET 3.483560 -0.000000 -0.000000
								CHANNELS 3 Zrotation Yrotation Xrotation
								JOINT LeftFingerBase
								{
									OFFSET 0.000000 0.000000 0.000000
									CHANNELS 3 Zrotation Yrotation Xrotation
									JOINT LeftHandIndex1
									{
										OFFSET 0.715260 -0.000000 -0.000000
										CHANNELS 3 Zrotation Yrotation Xrotation
										End Site
										{
											OFFSET 0.000000 0.000000 0.000000
										}
									}
								}
								JOINT LThumb
								{
									OFFSET 0.000000 0.000000 0.000000
									CHANNELS 3 Zrotation Yrotation Xrotation
									End Site
									{
										OFFSET 0.000000 0.000000 0.000000
									}
								}
							}
						}
					}
				}
				JOINT RightShoulder
				{
					OFFSET 0.000000 0.000000 0.000000
					CHANNELS 3 Zrotation Yrotation Xrotation
					JOINT RightArm
					{
						OFFSET -3.136600 1.374050 -0.404650
						CHANNELS 3 Zrotation Yrotation Xrotation
						JOINT RightForeArm
						{
							OFFSET -5.241900 -0.000000 -0.000000
							CHANNELS 3 Zrotation Yrotation Xrotation
							JOINT RightHand
							{
								OFFSET -3.444170 -0.000000 -0.000000
								CHANNELS 3 Zrotation Yrotation Xrotation
								JOINT RightFingerBase
								{
									OFFSET 0.000000 0.000000 0.000000
									CHANNELS 3 Zrotation Yrotation Xrotation
									JOINT RightHandIndex1
									{
										OFFSET -0.622530 -0.000000 -0.000000
										CHANNELS 3 Zrotation Yrotation Xrotation
										End Site
										{
											OFFSET 0.000000 0.000000 0.000000
										}
									}
								}
								JOINT RThumb
								{
									OFFSET 0.000000 0.000000 0.000000
									CHANNELS 3 Zrotation Yrotation Xrotation
									End Site
									{
										OFFSET 0.000000 0.000000 0.000000
									}
								}
							}
						}
					}
				}
			}
		}
	}
}
MOTION
Frames: 6
Frame Time: 0.008333
12.908633 8.103670 -0.839696 -177.267888 -1.566891 124.501409 0.000053 0.015258 0.020413 9.307109 8.681558 -48.905852 32.021718 16.101529 127.525058 -1.643435 -24.187753 -1.946219 0.268900 -3.335700 -9.214800 -0.007598 -0.019172 0.015586 16.005947 -3.120029 -45.681150 -30.005050 -17.409371 120.519490 -0.799225 0.554928 -16.728174 -1.493500 -7.720100 21.867100 -0.108733 1.856060 34.954332 2.527669 0.703239 5.860401 2.630931 -0.512953 -11.438584 -5.996124 -1.214735 8.089079 6.796549 -3.988187 12.803782 3.296600 -2.701400 3.049800 -0.024640 0.027490 -0.023674 47.774794 -61.569287 -73.758901 30.515854 -41.332080 -11.729663 -0.000253 0.009632 4.066837 7.594764 5.072086 0.674200 -7.125000 0.000000 0.000000 -15.695600 34.728200 4.087000 0.024412 -0.022462 -0.032679 -58.299394 58.213104 -88.014786 -25.275895 36.474360 -8.433052 0.001220 -0.018364 3.144549 -0.349973 -22.870076 0.136800 7.125000 0.000000 0.000000 28.363000 -50.533600 -4.159000 
12.906933 8.113566 -1.063216 -177.516916 -2.424928 123.977850 0.001339 0.015587 0.020004 7.775055 7.728519 -47.823650 31.618986 16.390747 126.084681 -1.681399 -24.397195 -1.855401 0.182700 -2.753300 -7.592800 -0.007946 -0.019139 0.015384 14.655058 -4.071672 -44.702641 -30.397282 -17.182798 121.838702 -0.895040 1.153933 -17.543382 -1.262000 -7.121000 20.074300 -0.738235 1.946700 34.704463 2.459542 0.583784 5.978322 2.938258 -0.547720 -11.218496 -6.322946 -1.164032 8.119100 6.967106 -3.979190 12.938061 3.420800 -2.717000 3.105500 -0.024589 0.027369 -0.023654 47.520599 -61.040786 -73.081502 30.639890 -41.436189 -11.811559 -0.000393 0.009959 3.234441 7.278645 5.408013 0.688500 -7.125000 0.000000 0.000000 -16.017500 35.037400 4.051300 0.024722 -0.022366 -0.032736 -58.597318 57.769828 -87.978989 -25.451690 36.651661 -8.537533 0.001499 -0.018494 2.925567 0.014441 -23.012393 -0.004700 7.125000 0.000000 0.000000 28.775800 -50.601200 -4.279600 
12.907133 8.108968 -1.295931 -177.853212 -3.649001 123.391404 0.002303 0.015834 0.019491 6.018594 6.991353 -46.867164 31.338239 16.583455 125.094236 -1.649455 -24.299494 -2.113852 0.102400 -2.063100 -5.679900 -0.007960 -0.018825 0.015131 12.639013 -5.488396 -43.878307 -30.849180 -16.906369 123.380785 -0.983834 1.965636 -18.209502 -1.078300 -6.600300 18.536600 -1.489932 2.055452 34.714053 2.174808 0.435662 5.988530 3.095835 -0.583226 -11.209268 -6.525584 -1.119356 8.542587 7.317897 -4.005519 12.835942 3.589700 -2.751500 3.013600 -0.024281 0.027198 -0.023943 47.689386 -60.692039 -72.536324 30.720810 -41.503748 -11.865041 -0.000556 0.010282 2.300259 6.907731 5.755339 0.694900 -7.125000 0.000000 0.000000 -16.388500 35.353300 4.020600 0.025299 -0.022524 -0.032500 -58.120442 57.385220 -87.403842 -25.730238 36.931362 -8.704309 0.001655 -0.018561 2.643591 0.183809 -23.040762 -0.070900 7.125000 0.000000 0.000000 28.945700 -50.599300 -4.307500 
12.906234 8.096273 -1.534845 -177.914084 -4.797694 122.933073 0.002941 0.015724 0.018964 4.754645 6.658834 -46.231648 31.228687 16.656760 124.710146 -1.554300 -23.554894 -1.901607 0.018800 -0.886100 -2.435500 -0.007406 -0.018368 0.014850 10.778214 -7.075215 -43.181788 -31.297926 -16.614962 124.937503 -1.080072 2.778097 -18.935795 -0.937300 -6.166600 17.268600 -2.259729 2.211594 34.607612 2.187123 0.407449 5.921882 3.529404 -0.549334 -11.251993 -6.738643 -1.086395 9.250056 7.773169 -4.086756 12.816297 3.465700 -2.793900 2.578800 -0.024340 0.027230 -0.024231 47.775921 -60.432586 -71.919050 30.657578 -41.450578 -11.823256 -0.000581 0.010587 0.936444 6.869346 6.120662 0.734700 -7.125000 0.000000 0.000000 -16.497700 35.703500 3.902700 0.025551 -0.022560 -0.032012 -57.498106 56.895860 -86.186476 -26.040712 37.240028 -8.891528 0.001581 -0.018669 2.390173 -0.040441 -23.247088 0.016900 7.125000 0.000000 0.000000 28.864400 -50.815400 -4.456000 
12.896637 8.091474 -1.775258 -177.595020 -5.362002 122.488464 0.002940 0.015431 0.018793 4.622984 6.863997 -45.485424 31.284943 16.619128 124.906482 -1.450205 -22.855125 -1.978484 0.002700 0.336500 0.924600 -0.006975 -0.017646 0.014273 9.716049 -8.535171 -42.143305 -31.670627 -16.359019 126.251326 -1.198927 3.630689 -19.839885 -0.875900 -5.966600 16.687600 -2.194886 2.096565 34.172162 2.217284 0.314913 6.029524 3.555948 -0.591928 -10.957301 -6.981508 -1.007026 9.676843 8.079368 -4.062946 12.702116 3.608700 -2.805300 2.483300 -0.024445 0.027006 -0.024530 47.933921 -59.848189 -71.132799 30.600312 -41.402302 -11.785510 -0.000509 0.010919 -0.493210 7.103985 6.544913 0.812500 -7.125000 0.000000 0.000000 -16.399900 36.126300 3.702000 0.025760 -0.022392 -0.031916 -57.339315 56.464998 -85.893904 -26.337553 37.531616 -9.071562 0.001509 -0.018906 2.600139 -0.059434 -23.750319 0.024900 7.125000 0.000000 0.000000 29.148900 -51.258200 -4.843000 
12.880443 8.101271 -2.014672 -177.051561 -5.173244 122.074768 0.002472 0.014654 0.018671 5.846310 7.819244 -44.610386 31.474792 16.490083 125.574101 -1.438737 -22.809745 -2.057560 0.068800 1.692100 4.655500 -0.006498 -0.016967 0.013597 9.630219 -9.457337 -40.973112 -31.981671 -16.135659 127.362697 -1.310543 4.224065 -20.691333 -0.811000 -5.747100 16.052200 -1.632399 2.042106 33.610207 2.674989 0.514144 6.173780 3.652932 -0.521352 -10.594815 -7.323587 -1.074153 10.045797 7.957102 -4.190244 12.606771 3.634900 -2.894200 2.413300 -0.025058 0.026956 -0.024686 47.796947 -59.399299 -70.653205 30.604874 -41.406110 -11.788465 -0.000410 0.011212 -1.604965 7.376204 6.975114 0.899200 -7.125000 0.000000 0.000000 -16.273300 36.558000 3.493200 0.025198 -0.021957 -0.031666 -57.202401 56.032696 -85.310636 -26.925305 38.100201 -9.431695 0.001495 -0.019232 2.583605 -0.036638 -24.613146 0.016200 7.125000 0.000000 0.000000 29.705300 -52.005600 -5.527100 
